<?xml version="1.0" encoding="UTF-8"?>
<svg id="Layer_1" data-name="Layer 1" xmlns="http://www.w3.org/2000/svg" version="1.1" viewBox="0 0 730 730">
  <defs>
    <style>
      .cls-1 {
        fill: #fff;
        stroke-width: 0px;
      }
    </style>
  </defs>
  <path class="cls-1" d="M370.6,721.3c-177.9-.7-332.1-132.9-357.3-306.7C-13,233.7,93,64.5,265.5,12c4.5-1.4,9.6-4.2,13.5-3.1,6.6,1.9,15.3,4.9,17.9,10.1,2.8,5.7,2,15.6-1.2,21.5-8.8,16.5-21,31.1-29.5,47.7-88.1,173.6,26.6,383.5,220.4,403.6,73.7,7.6,140.1-11.3,199.3-55.7,14.2-10.6,30.1-7.5,34.1,7.2,1.3,4.9.7,11-.9,15.9-44.4,137.8-137.4,222.8-278.6,254.7-10.3,2.3-20.8,3.6-31.3,4.7-12.8,1.3-25.7,1.8-38.6,2.6Z"/>
</svg>